<?xml version="1.0" standalone="no"?>
<!DOCTYPE svg PUBLIC "-//W3C//DTD SVG 20010904//EN"
 "http://www.w3.org/TR/2001/REC-SVG-20010904/DTD/svg10.dtd">
<svg version="1.0" xmlns="http://www.w3.org/2000/svg"
 width="300.000000pt" height="300.000000pt" viewBox="0 0 300.000000 300.000000"
 preserveAspectRatio="xMidYMid meet">
<metadata>
Created by potrace 1.10, written by Peter Selinger 2001-2011
</metadata>
<g transform="translate(0.000000,300.000000) scale(0.100000,-0.100000)"
fill="#ffb200" stroke="none">
<path d="M1328 2819 c-531 -66 -956 -424 -1101 -929 -143 -495 -23 -976 332
-1331 259 -259 578 -392 941 -391 366 0 682 131 941 391 355 355 475 836 332
1331 -136 472 -507 811 -996 911 -118 24 -333 33 -449 18z m357 -140 c100 -13
263 -66 367 -121 387 -201 638 -608 639 -1039 0 -211 -48 -408 -146 -597 -178
-343 -516 -562 -932 -605 -361 -36 -743 103 -985 361 -205 218 -320 521 -319
841 2 496 324 942 801 1109 184 64 355 79 575 51z"/>
<path d="M1650 2001 c-239 -93 -445 -177 -457 -187 -15 -13 -79 -168 -193
-464 -153 -398 -170 -447 -160 -471 7 -15 24 -32 39 -39 25 -10 71 6 472 160
244 94 452 179 461 188 9 9 94 217 188 461 152 397 170 448 160 472 -10 23
-48 50 -68 48 -4 0 -203 -76 -442 -168z m320 -34 c0 -19 -262 -674 -272 -680
-25 -14 -661 -257 -664 -254 -4 4 239 641 253 665 5 8 157 71 338 142 317 123
345 134 345 127z"/>
<path d="M1451 1544 c-12 -15 -21 -34 -21 -44 0 -31 39 -70 70 -70 31 0 70 39
70 70 0 31 -39 70 -70 70 -19 0 -36 -9 -49 -26z"/>
</g>
</svg>
