<?xml version="1.0" standalone="no"?>
<!DOCTYPE svg PUBLIC "-//W3C//DTD SVG 20010904//EN"
 "http://www.w3.org/TR/2001/REC-SVG-20010904/DTD/svg10.dtd">
<svg version="1.0" xmlns="http://www.w3.org/2000/svg"
 width="300.000000pt" height="300.000000pt" viewBox="0 0 300.000000 300.000000"
 preserveAspectRatio="xMidYMid meet">
<metadata>
Created by potrace 1.10, written by Peter Selinger 2001-2011
</metadata>
<g transform="translate(0.000000,300.000000) scale(0.100000,-0.100000)"
fill="#ffb200" stroke="none">
<path d="M608 2990 c-221 -40 -429 -193 -528 -389 -56 -112 -75 -194 -74 -331
0 -184 47 -324 154 -457 43 -54 45 -61 39 -98 -4 -22 -11 -87 -15 -145 -16
-244 51 -520 176 -732 l41 -69 -17 -51 c-68 -206 128 -402 334 -334 l51 17 69
-41 c251 -148 595 -212 877 -161 37 6 44 4 95 -37 30 -25 96 -64 145 -88 401
-192 869 12 1012 441 23 69 26 97 27 210 0 97 -4 147 -18 195 -24 88 -80 198
-136 267 -43 54 -45 61 -39 98 4 22 11 87 15 145 16 244 -51 520 -176 732
l-41 69 17 51 c68 206 -128 402 -334 334 l-51 -17 -69 41 c-212 125 -488 192
-732 176 -58 -4 -123 -11 -145 -15 -37 -6 -44 -4 -98 39 -68 55 -179 112 -262
135 -70 19 -249 28 -317 15z m267 -185 c93 -25 174 -73 250 -150 183 -183 215
-451 81 -679 -15 -26 -30 -45 -34 -42 -3 3 -13 28 -23 55 -23 67 -68 129 -134
188 l-55 50 20 44 c23 52 26 145 6 202 -32 88 -124 160 -222 173 -166 20 -320
-131 -301 -297 3 -26 15 -65 26 -87 l20 -39 -45 -33 c-60 -43 -122 -127 -149
-202 l-23 -62 -31 49 c-63 99 -75 147 -76 290 0 111 3 139 23 190 62 167 210
304 379 350 67 18 216 18 288 0z m893 -194 c163 -41 350 -132 344 -167 -9 -53
-3 -143 10 -175 23 -53 82 -114 136 -140 43 -21 118 -28 186 -17 23 4 62 -58
112 -178 56 -137 75 -230 81 -406 3 -87 3 -158 1 -158 -3 0 -34 13 -69 29 -98
44 -182 61 -301 61 -224 0 -416 -89 -563 -261 -173 -203 -216 -519 -104 -768
16 -35 29 -66 29 -69 0 -2 -71 -2 -157 1 -177 6 -270 25 -407 81 -120 50 -182
89 -178 112 9 53 3 143 -10 175 -23 53 -82 114 -136 140 -43 21 -118 28 -186
17 -23 -4 -62 58 -112 178 -56 137 -75 230 -81 407 -3 86 -3 157 -1 157 3 0
34 -13 69 -29 98 -44 182 -61 301 -61 224 0 416 89 563 261 173 203 216 519
104 768 -16 35 -29 66 -29 69 0 2 71 2 158 -1 110 -4 182 -11 240 -26z m-987
-151 c23 -13 49 -61 49 -91 0 -11 -16 -37 -35 -56 -32 -32 -40 -35 -73 -30
-81 13 -112 110 -51 161 32 27 76 34 110 16z m1646 -32 c32 -30 32 -90 -2
-123 -34 -35 -78 -33 -116 4 -37 38 -39 82 -4 116 32 33 89 34 122 3z m-1590
-344 c52 -19 124 -94 147 -155 11 -28 16 -65 14 -99 l-3 -55 -60 -24 c-131
-52 -280 -51 -411 2 l-59 24 1 65 c5 192 183 309 371 242z m1546 -809 c206
-43 386 -221 427 -422 7 -32 10 -98 8 -152 -5 -107 -28 -183 -79 -262 l-32
-50 -16 48 c-26 75 -65 136 -126 192 -31 28 -60 51 -65 51 -5 0 1 21 13 48 34
74 30 171 -8 241 -52 94 -133 141 -244 141 -106 0 -207 -72 -246 -173 -22 -58
-17 -165 10 -217 18 -34 17 -34 -6 -49 -68 -42 -152 -159 -183 -255 -9 -27
-27 -8 -65 69 -146 297 -8 649 302 767 104 40 199 47 310 23z m-73 -350 c36
-19 50 -43 50 -88 0 -77 -96 -116 -157 -63 -50 43 -32 130 32 157 30 12 43 11
75 -6z m-1619 -234 c57 -57 23 -141 -57 -141 -52 0 -84 31 -84 82 0 82 83 116
141 59z m1694 -149 c93 -47 161 -163 153 -259 -3 -33 -8 -41 -41 -57 -64 -31
-138 -46 -227 -46 -95 1 -150 11 -222 42 l-48 20 0 52 c0 29 8 74 17 101 21
62 93 136 154 158 59 22 161 17 214 -11z"/>
</g>
</svg>
