<?xml version="1.0" standalone="no"?>
<!DOCTYPE svg PUBLIC "-//W3C//DTD SVG 20010904//EN"
 "http://www.w3.org/TR/2001/REC-SVG-20010904/DTD/svg10.dtd">
<svg version="1.0" xmlns="http://www.w3.org/2000/svg"
 width="300.000000pt" height="300.000000pt" viewBox="0 0 300.000000 300.000000"
 preserveAspectRatio="xMidYMid meet">
<metadata>
Created by potrace 1.10, written by Peter Selinger 2001-2011
</metadata>
<g transform="translate(0.000000,300.000000) scale(0.100000,-0.100000)"
fill="#ffb200" stroke="none">
<path d="M1095 2820 c-82 -18 -126 -62 -186 -184 -23 -45 -55 -102 -72 -128
-36 -54 -68 -68 -197 -88 -136 -21 -190 -40 -236 -84 -65 -64 -75 -121 -49
-281 8 -49 15 -113 15 -142 0 -59 -6 -69 -137 -204 -92 -96 -113 -134 -113
-209 0 -75 21 -113 113 -209 131 -135 137 -145 137 -204 0 -29 -7 -92 -15
-142 -26 -160 -16 -217 49 -281 46 -44 100 -63 236 -84 92 -14 140 -28 162
-47 9 -8 54 -78 100 -155 88 -149 118 -181 185 -196 64 -15 126 2 248 65 152
79 179 78 333 -3 110 -57 115 -59 191 -59 68 0 83 3 120 28 49 33 108 119 139
205 26 71 81 125 142 142 23 6 83 17 133 25 104 16 151 32 196 71 66 55 79
122 57 273 -9 58 -16 128 -16 156 0 61 14 83 122 187 85 83 117 137 125 213 9
83 -27 149 -137 254 -49 47 -94 99 -100 114 -14 40 -13 102 6 216 19 112 14
167 -19 226 -37 66 -94 93 -251 120 -75 13 -151 32 -169 42 -23 14 -48 50 -97
142 -130 245 -205 272 -444 155 -159 -78 -171 -78 -341 3 -133 63 -178 75
-230 63z m205 -206 c120 -56 128 -59 206 -59 80 0 83 1 205 63 68 34 137 62
152 62 39 0 69 -36 133 -161 57 -111 103 -167 162 -195 19 -9 85 -25 146 -35
232 -38 236 -44 195 -255 -35 -177 -11 -243 141 -393 132 -130 130 -153 -20
-301 -47 -47 -95 -103 -105 -125 -27 -58 -31 -159 -9 -287 16 -97 16 -113 3
-136 -24 -43 -68 -61 -186 -76 -184 -24 -235 -60 -317 -220 -61 -120 -107
-176 -145 -176 -16 0 -84 28 -152 61 -112 56 -132 62 -199 66 l-75 5 -134 -66
c-74 -36 -148 -66 -163 -66 -41 0 -70 35 -135 164 -89 172 -127 199 -327 231
-55 9 -119 24 -143 35 l-43 19 0 74 c0 41 5 99 10 128 6 30 11 84 12 120 1 97
-24 145 -131 248 -153 150 -154 170 -14 309 140 139 172 223 140 373 -38 182
-36 202 31 230 25 11 96 28 158 39 62 10 130 28 151 39 59 30 108 90 164 204
64 130 82 150 129 144 20 -2 92 -31 160 -63z"/>
<path d="M1753 2261 c-33 -15 -49 -33 -82 -90 -78 -134 -170 -237 -294 -331
l-58 -43 -24 23 c-23 22 -29 22 -232 21 -198 -1 -209 -2 -225 -22 -17 -19 -18
-56 -18 -443 0 -411 1 -423 20 -444 20 -21 29 -22 166 -22 169 0 197 8 260 76
l42 45 63 -16 c180 -47 577 -80 653 -55 44 14 101 61 121 101 8 15 40 139 70
276 43 191 55 262 53 309 -4 72 -31 119 -92 162 -34 23 -51 27 -120 30 -45 2
-86 5 -93 7 -9 3 -5 20 12 58 31 67 48 190 34 240 -20 74 -102 137 -179 137
-19 0 -54 -9 -77 -19z m98 -131 c24 -14 26 -74 3 -151 -13 -43 -29 -66 -75
-111 -49 -48 -59 -63 -59 -91 0 -64 20 -71 212 -77 153 -5 171 -7 184 -24 22
-30 18 -64 -37 -311 -60 -275 -60 -275 -168 -275 -134 0 -349 26 -503 62 l-88
20 0 231 0 232 68 42 c147 91 298 246 387 398 39 68 44 71 76 55z m-673 -736
l-3 -306 -24 -19 c-19 -15 -39 -19 -107 -19 l-84 0 0 325 0 325 110 0 111 0
-3 -306z"/>
</g>
</svg>
