 <svg  version="1.0" xmlns="http://www.w3.org/2000/svg"  width="300.000000pt" height="300.000000pt" viewBox="0 0 300.000000 300.000000"  preserveAspectRatio="xMidYMid meet">  <g transform="translate(0.000000,300.000000) scale(0.100000,-0.100000)" fill="#cccccc" stroke="none"> <path d="M1340 2394 c-314 -40 -578 -156 -757 -332 -174 -171 -250 -404 -198 -607 33 -128 118 -266 217 -354 21 -19 38 -38 38 -43 0 -4 -54 -105 -121 -224 -67 -118 -119 -218 -116 -221 3 -3 43 15 89 40 46 24 166 86 267 137 l184 92 101 -30 c172 -53 263 -66 456 -66 142 0 196 4 288 22 498 100 842 419 842 782 0 363 -331 675 -829 781 -94 20 -375 34 -461 23z m455 -128 c396 -90 663 -307 721 -585 51 -248 -111 -508 -411 -658 -169 -85 -325 -122 -546 -130 -223 -8 -390 17 -554 83 l-63 25 -141 -70 c-78 -39 -141 -68 -141 -64 1 5 28 55 60 113 l60 105 -42 35 c-177 144 -262 298 -262 475 0 218 143 415 399 551 126 68 233 101 435 138 59 11 417 -2 485 -18z"/> </g> </svg> 