<?xml version="1.0" standalone="no"?>
<!DOCTYPE svg PUBLIC "-//W3C//DTD SVG 20010904//EN"
 "http://www.w3.org/TR/2001/REC-SVG-20010904/DTD/svg10.dtd">
<svg version="1.0" xmlns="http://www.w3.org/2000/svg"
 width="300.000000pt" height="300.000000pt" viewBox="0 0 300.000000 300.000000"
 preserveAspectRatio="xMidYMid meet">
<metadata>
Created by potrace 1.10, written by Peter Selinger 2001-2011
</metadata>
<g transform="translate(0.000000,300.000000) scale(0.100000,-0.100000)"
fill="#cccccc" stroke="none">
<path d="M1529 2372 c-75 -38 -108 -93 -164 -264 l-46 -141 -126 -138 -125
-139 -323 0 c-303 0 -324 -1 -346 -19 l-24 -19 -3 -559 c-2 -307 0 -572 3
-590 12 -68 -56 -63 932 -63 658 0 906 3 935 12 49 14 120 76 142 123 26 54
176 741 176 804 0 117 -69 224 -178 278 l-57 28 -247 3 c-137 2 -248 5 -248 6
0 1 21 94 46 207 60 268 55 319 -44 417 -87 87 -201 107 -303 54z m165 -106
c51 -21 96 -82 96 -132 0 -22 -22 -141 -50 -264 -27 -123 -50 -234 -50 -247 0
-12 9 -32 20 -43 19 -19 33 -20 302 -20 261 0 285 -1 323 -20 49 -24 81 -64
96 -122 11 -41 6 -72 -70 -412 -45 -202 -89 -378 -97 -391 -36 -56 -29 -55
-703 -55 l-621 0 0 500 0 500 85 0 c101 0 86 -11 280 205 l125 140 50 150 c56
168 68 191 114 211 40 17 59 17 100 0z m-884 -1206 l0 -500 -155 0 -155 0 0
500 0 500 155 0 155 0 0 -500z"/>
</g>
</svg>
