 <svg  version="1.0" xmlns="http://www.w3.org/2000/svg"  width="300.000000pt" height="300.000000pt" viewBox="0 0 300.000000 300.000000"  preserveAspectRatio="xMidYMid meet">  <g transform="translate(0.000000,300.000000) scale(0.100000,-0.100000)" fill="#cccccc" stroke="none"> <path d="M1520 2480 c-36 -36 -25 -60 60 -145 l81 -80 -403 -5 -403 -5 -50 -25 c-59 -29 -117 -85 -144 -139 -38 -74 -42 -155 -39 -693 5 -594 2 -573 97 -669 62 -62 124 -89 201 -89 52 0 80 21 80 58 0 35 -32 58 -89 66 -40 5 -61 15 -93 44 -70 63 -68 41 -68 639 0 605 -1 591 76 649 l37 29 396 3 395 3 -77 -80 c-82 -83 -94 -113 -59 -144 10 -10 32 -17 48 -17 24 0 52 23 167 138 115 115 137 142 137 167 0 26 -22 53 -143 173 -150 149 -169 160 -207 122z"/> <path d="M2148 2233 c-21 -23 -24 -76 -5 -91 7 -6 33 -14 57 -18 64 -9 112 -39 144 -87 l26 -42 -2 -566 -3 -566 -29 -37 c-56 -75 -63 -76 -491 -76 l-380 0 78 78 c62 63 77 83 77 108 0 36 -26 64 -60 64 -35 0 -310 -276 -310 -311 0 -18 36 -60 143 -167 120 -120 147 -142 173 -142 38 0 54 16 54 54 0 25 -15 46 -77 108 l-76 77 389 3 c328 3 396 6 432 20 98 37 165 106 197 204 14 43 15 115 13 609 -3 548 -3 561 -24 606 -47 102 -147 175 -255 186 -45 4 -57 2 -71 -14z"/> </g> </svg> 