 <svg  version="1.0" xmlns="http://www.w3.org/2000/svg"  width="300.000000pt" height="300.000000pt" viewBox="0 0 300.000000 300.000000"  preserveAspectRatio="xMidYMid meet">  <g transform="translate(0.000000,300.000000) scale(0.100000,-0.100000)" fill="#cfcfcf" stroke="none"> <path d="M2495 2977 c-27 -8 -66 -22 -85 -31 -44 -23 -1405 -1380 -1419 -1415 -16 -39 -181 -645 -181 -663 0 -27 40 -68 67 -68 24 0 125 26 518 136 l160 45 688 687 c782 781 752 745 752 897 0 70 -4 89 -32 146 -41 82 -169 209 -247 245 -65 29 -154 38 -221 21z m138 -148 c48 -13 168 -125 196 -183 40 -82 22 -159 -57 -238 -25 -27 -50 -48 -54 -48 -12 0 -348 338 -348 349 0 5 26 32 57 61 76 67 126 82 206 59z m-197 -406 l176 -176 -546 -546 -546 -546 -177 178 -178 177 545 545 c300 300 546 545 547 545 1 0 82 -79 179 -177z m-1196 -1198 c74 -74 132 -137 129 -139 -6 -6 -372 -107 -375 -103 -4 4 101 377 106 377 3 0 66 -61 140 -135z"/> <path d="M280 2684 c-112 -30 -209 -116 -252 -222 l-23 -57 -3 -1034 c-2 -928 -1 -1040 14 -1090 42 -147 148 -242 299 -270 78 -15 2139 -15 2216 -1 120 23 215 94 272 205 l32 60 3 397 c3 389 2 398 -18 418 -27 27 -81 27 -106 -1 -18 -20 -19 -45 -24 -403 -4 -330 -7 -385 -22 -411 -23 -42 -62 -80 -106 -102 -35 -17 -91 -18 -1116 -21 -1201 -3 -1149 -5 -1226 64 -74 67 -70 7 -70 1141 0 1109 -3 1052 58 1117 15 16 50 39 77 52 50 24 52 24 411 24 350 0 362 1 388 21 31 25 34 66 7 100 l-19 24 -369 2 c-299 2 -378 -1 -423 -13z"/> </g> </svg> 