<?xml version="1.0" standalone="no"?>
<!DOCTYPE svg PUBLIC "-//W3C//DTD SVG 20010904//EN"
 "http://www.w3.org/TR/2001/REC-SVG-20010904/DTD/svg10.dtd">
<svg version="1.0" xmlns="http://www.w3.org/2000/svg"
 width="300.000000pt" height="300.000000pt" viewBox="0 0 300.000000 300.000000"
 preserveAspectRatio="xMidYMid meet">
<metadata>
Created by potrace 1.10, written by Peter Selinger 2001-2011
</metadata>
<g transform="translate(0.000000,300.000000) scale(0.100000,-0.100000)"
fill="#ffb200" stroke="none">
<path d="M842 2985 c-147 -40 -247 -153 -272 -307 -13 -81 -13 -761 0 -852 24
-164 140 -285 305 -315 32 -6 115 -11 184 -11 l126 0 137 -137 c186 -186 170
-186 356 0 l137 137 126 0 c154 0 227 13 302 52 103 55 169 153 187 275 13 89
13 758 0 847 -20 133 -109 250 -228 298 l-57 23 -625 2 c-519 2 -634 0 -678
-12z m1306 -184 c47 -24 77 -56 97 -103 13 -32 15 -100 15 -448 0 -441 -1
-453 -53 -508 -48 -52 -69 -57 -274 -62 l-193 -5 -120 -120 -120 -120 -120
120 -120 120 -193 5 c-205 5 -226 10 -274 62 -52 55 -53 66 -53 510 0 380 2
416 19 453 20 44 50 74 96 98 26 14 104 16 643 17 583 0 615 -1 650 -19z"/>
<path d="M1415 2653 c-68 -25 -107 -54 -144 -109 -35 -54 -56 -139 -43 -175
23 -58 85 -79 135 -46 19 12 29 31 37 72 14 66 44 95 100 95 48 0 87 -31 96
-75 9 -51 -1 -70 -91 -164 -53 -56 -85 -99 -90 -119 -14 -64 46 -124 106 -106
38 12 193 184 226 252 64 132 10 293 -121 357 -71 35 -146 41 -211 18z"/>
<path d="M1453 1913 c-29 -6 -63 -49 -63 -79 0 -60 39 -94 110 -94 51 0 85 16
99 47 29 64 -6 121 -79 127 -25 2 -55 2 -67 -1z"/>
<path d="M575 1385 c-218 -40 -405 -183 -500 -380 -100 -207 -98 -416 7 -634
57 -119 168 -230 288 -288 122 -60 193 -76 330 -76 136 0 208 16 327 74 192
94 319 272 359 501 67 386 -201 753 -589 807 -96 13 -132 13 -222 -4z m238
-180 c258 -54 421 -274 405 -547 -9 -150 -81 -283 -202 -375 -194 -146 -438
-146 -632 0 -76 58 -139 142 -175 234 -31 80 -37 224 -14 313 71 274 336 435
618 375z"/>
<path d="M895 868 c-11 -6 -71 -60 -132 -121 l-113 -112 -74 74 c-66 65 -78
73 -112 73 -49 0 -84 -37 -84 -89 0 -32 11 -47 106 -144 109 -110 147 -136
186 -126 13 4 96 80 186 170 139 141 162 168 162 194 0 45 -9 62 -41 78 -33
18 -57 18 -84 3z"/>
<path d="M2175 1385 c-213 -38 -403 -182 -499 -379 -78 -157 -93 -306 -51
-486 44 -184 180 -357 345 -437 122 -60 193 -76 330 -76 137 0 208 16 330 76
119 58 229 168 287 287 107 218 109 427 7 639 -38 77 -60 108 -127 175 -124
123 -242 183 -401 205 -95 13 -131 13 -221 -4z m240 -180 c243 -51 405 -256
405 -512 0 -137 -53 -266 -150 -363 -106 -106 -220 -153 -370 -153 -76 0 -109
5 -167 25 -254 90 -397 345 -342 610 58 280 334 454 624 393z"/>
<path d="M2050 945 c-17 -18 -24 -36 -23 -62 1 -30 12 -46 74 -109 l73 -74
-66 -67 c-37 -38 -71 -80 -77 -95 -21 -55 27 -118 90 -118 13 0 51 29 100 77
l79 76 79 -76 c49 -48 87 -77 100 -77 63 0 111 63 90 118 -6 15 -40 57 -77 95
l-66 67 74 75 c64 64 74 79 74 109 0 51 -36 86 -87 86 -35 0 -47 -7 -113 -72
l-74 -71 -74 71 c-66 65 -78 72 -113 72 -29 0 -46 -7 -63 -25z"/>
</g>
</svg>
