<?xml version="1.0" standalone="no"?>
<!DOCTYPE svg PUBLIC "-//W3C//DTD SVG 20010904//EN"
 "http://www.w3.org/TR/2001/REC-SVG-20010904/DTD/svg10.dtd">
<svg version="1.0" xmlns="http://www.w3.org/2000/svg"
 width="300.000000pt" height="300.000000pt" viewBox="0 0 300.000000 300.000000"
 preserveAspectRatio="xMidYMid meet">
<metadata>
Created by potrace 1.10, written by Peter Selinger 2001-2011
</metadata>
<g transform="translate(0.000000,300.000000) scale(0.100000,-0.100000)"
fill="#ffb200" stroke="none">
<path d="M1865 2988 c-31 -17 -205 -190 -221 -220 -20 -39 -17 -62 12 -97 33
-40 80 -42 122 -6 17 14 33 25 36 25 3 0 6 -65 6 -145 0 -80 -1 -145 -3 -145
-2 0 -32 11 -66 25 -123 50 -224 69 -376 68 -295 0 -517 -91 -723 -295 -263
-260 -368 -653 -271 -1010 30 -111 109 -262 189 -361 l70 -86 0 -330 c0 -194
4 -340 10 -356 20 -53 39 -55 525 -55 l447 0 29 29 c27 28 29 34 29 110 l0 81
200 0 c216 0 238 4 298 55 67 57 77 90 80 287 l4 176 156 4 c131 2 161 6 184
21 33 23 60 88 52 125 -4 15 -63 122 -131 239 l-123 211 0 124 c0 296 -97 527
-307 736 l-103 104 0 194 c0 107 3 194 6 194 3 0 19 -11 36 -25 62 -52 148
-16 148 63 0 31 -12 47 -102 139 -129 131 -161 150 -213 121z m-270 -693 c33
-9 97 -34 143 -55 l83 -39 -3 -418 c-3 -404 -4 -420 -25 -472 -79 -193 -241
-300 -436 -289 -97 6 -172 32 -242 86 -218 165 -234 481 -34 666 104 97 234
138 359 115 130 -23 149 -23 176 2 33 31 33 91 1 123 -50 50 -260 72 -382 41
-144 -37 -290 -140 -371 -262 -21 -31 -51 -96 -67 -143 -25 -72 -30 -101 -30
-185 0 -65 6 -123 17 -165 76 -281 348 -477 632 -456 252 18 460 177 546 416
22 62 23 79 28 430 l5 364 38 -44 c136 -158 206 -383 193 -615 l-6 -100 109
-185 109 -185 -154 -5 c-213 -7 -198 13 -202 -273 -2 -211 -4 -223 -23 -240
-19 -15 -47 -17 -261 -17 l-239 0 -24 -25 c-22 -22 -25 -32 -25 -105 l0 -80
-345 0 -345 0 0 210 0 210 53 -30 c66 -37 109 -39 142 -5 26 26 33 72 15 105
-5 10 -36 32 -67 50 -167 94 -282 219 -363 393 -60 130 -74 200 -74 362 1 122
4 151 28 228 14 49 38 112 53 140 117 232 337 403 596 462 82 19 309 13 392
-10z"/>
<path d="M1310 1711 c-119 -39 -189 -130 -190 -245 0 -80 17 -129 62 -181 125
-142 346 -112 435 58 25 49 29 148 8 204 -22 57 -76 118 -129 145 -44 22 -145
33 -186 19z m130 -196 c52 -55 13 -145 -61 -145 -36 0 -89 47 -89 80 0 26 25
77 42 83 36 15 85 6 108 -18z"/>
</g>
</svg>
