<?xml version="1.0" standalone="no"?>
<!DOCTYPE svg PUBLIC "-//W3C//DTD SVG 20010904//EN"
 "http://www.w3.org/TR/2001/REC-SVG-20010904/DTD/svg10.dtd">
<svg version="1.0" xmlns="http://www.w3.org/2000/svg"
 width="300.000000pt" height="300.000000pt" viewBox="0 0 300.000000 300.000000"
 preserveAspectRatio="xMidYMid meet">
<metadata>
Created by potrace 1.10, written by Peter Selinger 2001-2011
</metadata>
<g transform="translate(0.000000,300.000000) scale(0.100000,-0.100000)"
fill="#ffb200" stroke="none">
<path d="M911 2969 c-611 -75 -1014 -678 -850 -1271 103 -374 425 -660 814
-723 71 -12 200 -15 603 -15 l513 0 24 25 c14 13 25 33 25 44 0 22 -82 121
-179 216 -34 33 -61 62 -61 65 0 3 22 36 49 72 319 438 224 1059 -213 1390
-202 153 -477 228 -725 197z m289 -151 c321 -62 584 -312 672 -637 30 -110 30
-315 -1 -426 -37 -138 -103 -260 -197 -366 -67 -75 -63 -92 44 -201 l87 -89
-455 3 c-425 4 -460 6 -531 25 -330 92 -568 344 -639 678 -20 92 -15 275 9
370 48 184 167 367 312 477 207 157 450 215 699 166z"/>
<path d="M630 2180 c-27 -27 -25 -66 5 -95 l24 -25 369 0 c358 0 370 1 396 21
32 25 36 77 8 102 -17 15 -59 17 -400 17 -369 0 -383 -1 -402 -20z"/>
<path d="M630 1830 c-29 -29 -26 -74 6 -99 24 -19 40 -21 165 -21 126 0 141 2
159 20 28 28 27 84 -2 104 -18 13 -52 16 -165 16 -130 0 -145 -2 -163 -20z"/>
<path d="M1240 1830 c-29 -29 -26 -74 6 -99 21 -17 41 -21 95 -21 79 0 109 19
109 70 0 52 -29 70 -115 70 -62 0 -79 -4 -95 -20z"/>
<path d="M2206 1979 c-30 -24 -36 -78 -11 -99 9 -7 51 -27 95 -45 112 -45 182
-90 271 -173 182 -171 272 -383 271 -637 -1 -145 -23 -239 -85 -370 -110 -228
-318 -398 -572 -467 -75 -20 -107 -21 -529 -26 l-449 -4 86 93 c64 69 87 100
87 120 0 18 -21 51 -64 103 -66 79 -120 172 -151 261 -31 86 -82 109 -132 59
-30 -30 -28 -49 17 -157 26 -62 78 -150 145 -243 14 -19 9 -26 -97 -138 -62
-65 -117 -129 -122 -142 -13 -31 6 -72 40 -84 34 -13 952 -13 1069 0 236 27
439 125 605 290 262 263 358 638 254 997 -86 296 -306 537 -597 652 -92 37
-97 37 -131 10z"/>
</g>
</svg>
